<svg width="70" height="70" viewBox="0 0 70 70" fill="none" xmlns="http://www.w3.org/2000/svg">
<rect width="70" height="70" fill="#0000CD"/>
<circle cx="34.9317" cy="34.9316" r="21.6316" fill="#F3F2EE"/>
<path d="M30.5114 35.6414C29.6794 36.5177 29.4018 37.7476 29.6646 38.8545C29.6794 38.8851 29.6794 38.9158 29.6937 38.947C29.8106 39.6695 29.6207 40.4382 29.095 40.9919C28.7882 41.3151 28.4091 41.5144 28.0293 41.6071C30.3067 42.8526 33.1822 42.4683 35.1088 40.4539C36.3644 39.1314 36.3644 36.9639 35.1088 35.6414C33.8247 34.3189 31.7811 34.3189 30.5114 35.6414Z" fill="black"/>
<path d="M42.1886 28.1688C42.0279 27.9994 41.7656 27.9844 41.5757 28.1225L35.0795 33.3194C34.9045 33.4575 34.8896 33.7194 35.0504 33.8732L36.7581 35.6719C36.9189 35.8412 37.1521 35.8256 37.2838 35.6412L42.2319 28.7994C42.3636 28.615 42.3489 28.3381 42.1886 28.1688Z" fill="black"/>
<path fill-rule="evenodd" clip-rule="evenodd" d="M26.1283 27.6862V26.6H24.7529C24.5041 26.6 24.2553 26.6544 24.0061 26.763C23.7573 26.8594 23.5348 27.0102 23.3382 27.2156C23.1287 27.4087 22.9582 27.6562 22.8273 27.9576C22.6963 28.2475 22.6307 28.5852 22.6307 28.9714V32.2482C22.6307 32.562 22.5849 32.8457 22.4933 33.0989C22.4017 33.3648 22.2838 33.5881 22.1395 33.7689C21.9823 33.962 21.8056 34.1069 21.6091 34.2036C21.4126 34.312 21.2095 34.3663 21 34.3663V35.5975C21.2095 35.5975 21.4126 35.6457 21.6091 35.7424C21.8056 35.8388 21.9823 35.9775 22.1395 36.1587C22.2838 36.3518 22.4017 36.5812 22.4933 36.8464C22.5849 37.112 22.6307 37.4076 22.6307 37.7337V41.0287C22.6307 41.4148 22.6963 41.7525 22.8273 42.0424C22.9582 42.3438 23.1287 42.5914 23.3382 42.7844C23.5348 42.9898 23.7573 43.1406 24.0061 43.2369C24.2553 43.3457 24.5041 43.4 24.7529 43.4H26.1283V42.3137H25.146C24.9495 42.3137 24.7922 42.2656 24.6743 42.1688C24.5564 42.0844 24.4648 41.9637 24.3992 41.8069C24.3206 41.6619 24.2683 41.4931 24.2419 41.3C24.216 41.1188 24.2026 40.9261 24.2026 40.7207V37.4439C24.2026 36.9852 24.1374 36.6051 24.0061 36.3036C23.8622 36.0018 23.6985 35.7544 23.5149 35.5612C23.3317 35.3801 23.1482 35.2475 22.965 35.163C22.7685 35.0786 22.6112 35.0301 22.4933 35.0181V34.9638C22.6112 34.9398 22.7685 34.8794 22.965 34.7826C23.1482 34.6862 23.3317 34.5413 23.5149 34.3482C23.6985 34.1551 23.8622 33.9076 24.0061 33.6062C24.1374 33.3163 24.2026 32.9602 24.2026 32.538V29.2431C24.2026 29.05 24.216 28.863 24.2419 28.6819C24.2683 28.4888 24.3206 28.3199 24.3992 28.175C24.4648 28.0301 24.5564 27.9156 24.6743 27.8312C24.7922 27.7344 24.9495 27.6862 25.146 27.6862H26.1283Z" fill="black"/>
<path fill-rule="evenodd" clip-rule="evenodd" d="M44.1001 42.3137V43.4H45.4755C45.7243 43.4 45.9731 43.3457 46.2223 43.2369C46.4712 43.1406 46.6937 42.9898 46.8902 42.7844C47.0997 42.5914 47.2703 42.3438 47.4012 42.0424C47.5321 41.7525 47.5977 41.4148 47.5977 41.0287V37.7518C47.5977 37.438 47.6435 37.1544 47.7351 36.9011C47.8267 36.6352 47.9446 36.412 48.0888 36.2312C48.246 36.038 48.4229 35.8931 48.6193 35.7964C48.8158 35.6881 49.0188 35.6337 49.2284 35.6337V34.4025C49.0188 34.4025 48.8158 34.3544 48.6193 34.2576C48.4229 34.1612 48.246 34.0225 48.0888 33.8413C47.9446 33.6482 47.8267 33.4189 47.7351 33.1536C47.6435 32.888 47.5977 32.5924 47.5977 32.2663V28.9714C47.5977 28.5852 47.5321 28.2475 47.4012 27.9576C47.2703 27.6562 47.0997 27.4087 46.8902 27.2156C46.6937 27.0102 46.4712 26.8594 46.2223 26.763C45.9731 26.6544 45.7243 26.6 45.4755 26.6H44.1001V27.6862H45.0824C45.279 27.6862 45.4362 27.7344 45.5541 27.8312C45.672 27.9156 45.7636 28.0362 45.8293 28.1931C45.9079 28.3381 45.9602 28.5069 45.9865 28.7C46.0125 28.8812 46.0258 29.0739 46.0258 29.2794V32.5562C46.0258 33.0148 46.0911 33.3949 46.2223 33.6964C46.3662 33.9982 46.5299 34.2457 46.7135 34.4388C46.8967 34.6199 47.0802 34.7525 47.2634 34.837C47.46 34.9214 47.6172 34.9699 47.7351 34.9819V35.0362C47.6172 35.0602 47.46 35.1207 47.2634 35.2174C47.0802 35.3138 46.8967 35.4587 46.7135 35.6518C46.5299 35.8449 46.3662 36.0924 46.2223 36.3939C46.0911 36.6837 46.0258 37.0398 46.0258 37.462V40.7569C46.0258 40.95 46.0125 41.1369 45.9865 41.3181C45.9602 41.5113 45.9079 41.6801 45.8293 41.825C45.7636 41.9699 45.672 42.0844 45.5541 42.1688C45.4362 42.2656 45.279 42.3137 45.0824 42.3137H44.1001Z" fill="black"/>
</svg>
