<svg width="25" height="25" viewBox="0 0 25 25" fill="none" xmlns="http://www.w3.org/2000/svg">
<path d="M12.75 4.08337V1.02087L8.66667 5.10421L12.75 9.18754V6.12504C16.129 6.12504 18.875 8.87108 18.875 12.25C18.875 13.2811 18.6198 14.2611 18.1604 15.1084L19.6508 16.5988C20.4471 15.3432 20.9167 13.8527 20.9167 12.25C20.9167 7.73796 17.2621 4.08337 12.75 4.08337ZM12.75 18.375C9.37104 18.375 6.625 15.629 6.625 12.25C6.625 11.219 6.88021 10.239 7.33959 9.39171L5.84917 7.90129C5.05292 9.15692 4.58334 10.6473 4.58334 12.25C4.58334 16.7621 8.23792 20.4167 12.75 20.4167V23.4792L16.8333 19.3959L12.75 15.3125V18.375Z" fill="#333333"/>
</svg>
