<svg width="24" height="24" viewBox="0 0 24 24" fill="none" xmlns="http://www.w3.org/2000/svg">
<g clip-path="url(#clip0_1_668)">
<path fill-rule="evenodd" clip-rule="evenodd" d="M12 22C13.1046 22 14 21.1046 14 20C14 18.8954 13.1046 18 12 18C10.8954 18 10 18.8954 10 20C10 21.1046 10.8954 22 12 22ZM14 12C14 10.8954 13.1046 10 12 10C10.8954 10 10 10.8954 10 12C10 13.1046 10.8954 14 12 14C13.1046 14 14 13.1046 14 12ZM8 12C8 14.2091 6.20914 16 4 16C1.79086 16 0 14.2091 0 12C0 9.79086 1.79086 8 4 8C6.20914 8 8 9.79086 8 12ZM4 14C5.10456 14 6 13.1046 6 12C6 10.8954 5.10456 10 4 10C2.89544 10 2 10.8954 2 12C2 13.1046 2.89544 14 4 14ZM20 14C21.1046 14 22 13.1046 22 12C22 10.8954 21.1046 10 20 10C18.8954 10 18 10.8954 18 12C18 13.1046 18.8954 14 20 14ZM12 6C13.1046 6 14 5.10456 14 4C14 2.89544 13.1046 2 12 2C10.8954 2 10 2.89544 10 4C10 5.10456 10.8954 6 12 6ZM16 4C16 6.20914 14.2091 8 12 8C9.79086 8 8 6.20914 8 4C8 1.79086 9.79086 0 12 0C14.2091 0 16 1.79086 16 4ZM12 24C14.2091 24 16 22.2092 16 20C16 17.7909 14.2091 16 12 16C9.79086 16 8 17.7909 8 20C8 22.2092 9.79086 24 12 24ZM20 16C22.2092 16 24 14.2091 24 12C24 9.79086 22.2092 8 20 8C17.7909 8 16 9.79086 16 12C16 14.2091 17.7909 16 20 16Z" fill="#333333"/>
</g>
<defs>
<clipPath id="clip0_1_668">
<rect width="24" height="24" fill="white"/>
</clipPath>
</defs>
</svg>
